<svg width="438" height="798" viewBox="0 0 438 798" fill="none" xmlns="http://www.w3.org/2000/svg">
<g filter="url(#filter0_dii_1_661)">
<path d="M39 62H399V735C399 746.598 389.598 756 378 756H60C48.402 756 39 746.598 39 735V62Z" fill="#F8F8F8"/>
<path d="M36 58C36 43.0883 48.0883 31 63 31H376C390.912 31 403 43.0883 403 58V62H36V58Z" fill="#F8F8F8"/>
<path opacity="0.4" d="M347.765 45.1459C347.765 43.9492 348.735 42.9792 349.931 42.9792H367.245C368.442 42.9792 369.412 43.9492 369.412 45.1459V51.8542C369.412 53.0508 368.442 54.0209 367.245 54.0209H349.931C348.735 54.0209 347.765 53.0508 347.765 51.8542V45.1459Z" stroke="#151515"/>
<path opacity="0.5" d="M370.941 46.375V50.625C371.773 50.265 372.313 49.4277 372.313 48.5C372.313 47.5723 371.773 46.735 370.941 46.375Z" fill="#151515"/>
<path d="M349.323 45.9375C349.323 45.2011 349.92 44.6042 350.657 44.6042H366.519C367.256 44.6042 367.853 45.2011 367.853 45.9375V51.0625C367.853 51.7989 367.256 52.3959 366.519 52.3959H350.657C349.92 52.3959 349.323 51.7989 349.323 51.0625V45.9375Z" fill="#151515"/>
<path fill-rule="evenodd" clip-rule="evenodd" d="M334.226 44.8598C336.516 44.8599 338.719 45.7499 340.379 47.346C340.504 47.4692 340.703 47.4676 340.826 47.3425L342.021 46.1229C342.084 46.0594 342.118 45.9735 342.118 45.884C342.117 45.7945 342.082 45.709 342.018 45.6462C337.662 41.4235 330.789 41.4235 326.433 45.6462C326.37 45.7089 326.334 45.7945 326.334 45.8839C326.333 45.9734 326.368 46.0594 326.43 46.1229L327.625 47.3425C327.748 47.4678 327.948 47.4694 328.073 47.346C329.733 45.7498 331.936 44.8598 334.226 44.8598ZM334.224 48.8182C335.484 48.8181 336.699 49.3032 337.633 50.1793C337.759 50.3037 337.958 50.301 338.081 50.1733L339.276 48.9225C339.339 48.8569 339.374 48.7679 339.373 48.6754C339.372 48.583 339.335 48.4947 339.271 48.4305C336.427 45.6899 332.024 45.6899 329.18 48.4305C329.116 48.4947 329.079 48.583 329.079 48.6755C329.078 48.768 329.113 48.857 329.176 48.9225L330.37 50.1733C330.493 50.301 330.692 50.3037 330.819 50.1793C331.752 49.3038 332.966 48.8187 334.224 48.8182ZM336.628 51.712C336.629 51.8028 336.594 51.8903 336.53 51.9539L334.456 54.0695C334.395 54.1317 334.312 54.1667 334.226 54.1667C334.139 54.1667 334.056 54.1317 333.996 54.0695L331.921 51.9539C331.857 51.8903 331.822 51.8027 331.824 51.7119C331.826 51.6211 331.865 51.5352 331.931 51.4743C333.256 50.3419 335.196 50.3419 336.52 51.4743C336.587 51.5352 336.626 51.6212 336.628 51.712Z" fill="#151515"/>
<path fill-rule="evenodd" clip-rule="evenodd" d="M321.186 43.8958C321.186 43.309 320.725 42.8333 320.157 42.8333H319.127C318.559 42.8333 318.098 43.309 318.098 43.8958V53.1041C318.098 53.6909 318.559 54.1666 319.127 54.1666H320.157C320.725 54.1666 321.186 53.6909 321.186 53.1041V43.8958ZM314.323 45.3125H315.353C315.921 45.3125 316.382 45.7882 316.382 46.375V53.1041C316.382 53.691 315.921 54.1666 315.353 54.1666H314.323C313.755 54.1666 313.294 53.691 313.294 53.1041V46.375C313.294 45.7882 313.755 45.3125 314.323 45.3125ZM310.549 47.7916H309.519C308.951 47.7916 308.49 48.2673 308.49 48.8541V53.1041C308.49 53.6909 308.951 54.1666 309.519 54.1666H310.549C311.117 54.1666 311.578 53.6909 311.578 53.1041V48.8541C311.578 48.2673 311.117 47.7916 310.549 47.7916ZM306.774 50.9791C306.774 50.3923 306.313 49.9166 305.745 49.9166H304.715C304.147 49.9166 303.686 50.3923 303.686 50.9791V53.1041C303.686 53.6909 304.147 54.1666 304.715 54.1666H305.745C306.313 54.1666 306.774 53.6909 306.774 53.1041V50.9791Z" fill="#151515"/>
<path d="M73.1212 44.4137C73.7364 44.4137 74.3028 44.5089 74.8204 44.6993C75.3429 44.8898 75.7603 45.1779 76.0728 45.5636C76.3853 45.9445 76.5416 46.423 76.5416 46.9991C76.5416 47.4288 76.4561 47.8048 76.2852 48.1271C76.1192 48.4493 75.8922 48.7325 75.6041 48.9767C75.316 49.2159 74.9888 49.4259 74.6226 49.6066C75.0035 49.8068 75.3648 50.0411 75.7066 50.3097C76.0484 50.5734 76.3267 50.8834 76.5416 51.2399C76.7613 51.5963 76.8712 52.0114 76.8712 52.485C76.8712 53.0807 76.7125 53.5983 76.3951 54.0377C76.0777 54.4723 75.6383 54.8092 75.0767 55.0485C74.5152 55.2877 73.8634 55.4073 73.1212 55.4073C72.3204 55.4073 71.6392 55.2926 71.0777 55.0631C70.5162 54.8336 70.0889 54.5065 69.796 54.0817C69.503 53.652 69.3565 53.1393 69.3565 52.5436C69.3565 52.0553 69.4469 51.6305 69.6275 51.2692C69.8131 50.9078 70.0621 50.5978 70.3746 50.339C70.6871 50.0753 71.0313 49.8507 71.4073 49.6652C71.0899 49.465 70.7994 49.2379 70.5357 48.984C70.2769 48.7301 70.0694 48.4396 69.9132 48.1124C69.7618 47.7853 69.6861 47.4093 69.6861 46.9845C69.6861 46.4181 69.8448 45.9445 70.1622 45.5636C70.4845 45.1827 70.9068 44.8971 71.4293 44.7067C71.9517 44.5114 72.5157 44.4137 73.1212 44.4137ZM71.4512 52.4117C71.4512 52.7975 71.588 53.1173 71.8614 53.3712C72.1397 53.6202 72.5499 53.7448 73.0919 53.7448C73.6534 53.7448 74.0733 53.6251 74.3516 53.3859C74.63 53.1417 74.7691 52.8219 74.7691 52.4264C74.7691 52.153 74.6886 51.9137 74.5274 51.7086C74.3712 51.5035 74.1734 51.3204 73.9342 51.1593C73.6949 50.9933 73.4532 50.8395 73.2091 50.6979L73.0113 50.5953C72.6988 50.7369 72.4254 50.8956 72.191 51.0714C71.9615 51.2472 71.7808 51.4449 71.649 51.6647C71.5172 51.8844 71.4512 52.1334 71.4512 52.4117ZM73.1065 46.069C72.7354 46.069 72.4278 46.1642 72.1837 46.3546C71.9395 46.545 71.8175 46.8136 71.8175 47.1603C71.8175 47.4044 71.8761 47.6193 71.9932 47.8048C72.1153 47.9855 72.274 48.1442 72.4693 48.2809C72.6695 48.4176 72.8868 48.5446 73.1212 48.6617C73.3458 48.5543 73.5557 48.4347 73.7511 48.3029C73.9464 48.171 74.1051 48.0123 74.2271 47.8268C74.3492 47.6412 74.4102 47.4191 74.4102 47.1603C74.4102 46.8136 74.2857 46.545 74.0367 46.3546C73.7926 46.1642 73.4825 46.069 73.1065 46.069ZM78.5029 54.2135C78.5029 53.7545 78.6274 53.4323 78.8765 53.2467C79.1304 53.0612 79.4356 52.9684 79.792 52.9684C80.1387 52.9684 80.4365 53.0612 80.6856 53.2467C80.9395 53.4323 81.0664 53.7545 81.0664 54.2135C81.0664 54.653 80.9395 54.9703 80.6856 55.1656C80.4365 55.361 80.1387 55.4586 79.792 55.4586C79.4356 55.4586 79.1304 55.361 78.8765 55.1656C78.6274 54.9703 78.5029 54.653 78.5029 54.2135ZM78.5029 48.1637C78.5029 47.7047 78.6274 47.3824 78.8765 47.1969C79.1304 47.0114 79.4356 46.9186 79.792 46.9186C80.1387 46.9186 80.4365 47.0114 80.6856 47.1969C80.9395 47.3824 81.0664 47.7047 81.0664 48.1637C81.0664 48.608 80.9395 48.9279 80.6856 49.1232C80.4365 49.3136 80.1387 49.4088 79.792 49.4088C79.4356 49.4088 79.1304 49.3136 78.8765 49.1232C78.6274 48.9279 78.5029 48.608 78.5029 48.1637ZM88.3525 55.2609H86.0893V49.0646C86.0893 48.8937 86.0917 48.6837 86.0966 48.4347C86.1015 48.1808 86.1088 47.922 86.1186 47.6583C86.1283 47.3898 86.1381 47.1481 86.1479 46.9332C86.0942 46.9967 85.9843 47.1066 85.8183 47.2628C85.6572 47.4142 85.5058 47.5509 85.3642 47.673L84.1337 48.6617L83.0424 47.2994L86.4921 44.5529H88.3525V55.2609ZM95.4701 48.42C96.1244 48.42 96.7054 48.5446 97.2132 48.7936C97.7259 49.0426 98.1288 49.4088 98.4217 49.8922C98.7147 50.3756 98.8612 50.9713 98.8612 51.6793C98.8612 52.4508 98.7001 53.1173 98.3778 53.6788C98.0604 54.2355 97.5843 54.6627 96.9496 54.9606C96.3197 55.2584 95.5335 55.4073 94.5912 55.4073C94.0296 55.4073 93.4999 55.3585 93.0018 55.2609C92.5086 55.1681 92.0765 55.024 91.7054 54.8287V52.8732C92.0765 53.0685 92.5209 53.2345 93.0384 53.3712C93.5609 53.5031 94.0516 53.569 94.5106 53.569C94.9598 53.569 95.3382 53.5104 95.6459 53.3932C95.9535 53.2711 96.1854 53.0856 96.3417 52.8365C96.5028 52.5826 96.5834 52.2604 96.5834 51.8698C96.5834 51.3473 96.4076 50.9469 96.056 50.6686C95.7044 50.3903 95.1649 50.2511 94.4374 50.2511C94.159 50.2511 93.8685 50.278 93.5658 50.3317C93.2679 50.3854 93.0189 50.4391 92.8187 50.4928L91.9178 50.0094L92.3207 44.5529H98.1288V46.4718H94.3055L94.1078 48.5739C94.2738 48.5397 94.4544 48.5055 94.6498 48.4713C94.8451 48.4371 95.1185 48.42 95.4701 48.42Z" fill="#151515"/>
<path d="M159 31H279C279 45.3594 267.359 57 253 57H185C170.641 57 159 45.3594 159 31Z" fill="#222222"/>
<rect x="190" y="41" width="54" height="4" rx="2" fill="#393939"/>
<circle cx="250" cy="43" r="2" fill="#393939"/>
<rect x="31.5" y="27.5" width="375" height="735" rx="49.5" stroke="#222222" stroke-width="15"/>
</g>
<defs>
<filter id="filter0_dii_1_661" x="0" y="0" width="438" height="798" filterUnits="userSpaceOnUse" color-interpolation-filters="sRGB">
<feFlood flood-opacity="0" result="BackgroundImageFix"/>
<feColorMatrix in="SourceAlpha" type="matrix" values="0 0 0 0 0 0 0 0 0 0 0 0 0 0 0 0 0 0 127 0" result="hardAlpha"/>
<feOffset dy="4"/>
<feGaussianBlur stdDeviation="12"/>
<feColorMatrix type="matrix" values="0 0 0 0 0 0 0 0 0 0 0 0 0 0 0 0 0 0 0.35 0"/>
<feBlend mode="normal" in2="BackgroundImageFix" result="effect1_dropShadow_1_661"/>
<feBlend mode="normal" in="SourceGraphic" in2="effect1_dropShadow_1_661" result="shape"/>
<feColorMatrix in="SourceAlpha" type="matrix" values="0 0 0 0 0 0 0 0 0 0 0 0 0 0 0 0 0 0 127 0" result="hardAlpha"/>
<feOffset dx="-9" dy="-10"/>
<feGaussianBlur stdDeviation="5"/>
<feComposite in2="hardAlpha" operator="arithmetic" k2="-1" k3="1"/>
<feColorMatrix type="matrix" values="0 0 0 0 0.916667 0 0 0 0 0.916667 0 0 0 0 0.916667 0 0 0 0.19 0"/>
<feBlend mode="normal" in2="shape" result="effect2_innerShadow_1_661"/>
<feColorMatrix in="SourceAlpha" type="matrix" values="0 0 0 0 0 0 0 0 0 0 0 0 0 0 0 0 0 0 127 0" result="hardAlpha"/>
<feOffset dx="-3" dy="-7"/>
<feGaussianBlur stdDeviation="2.5"/>
<feComposite in2="hardAlpha" operator="arithmetic" k2="-1" k3="1"/>
<feColorMatrix type="matrix" values="0 0 0 0 0.233333 0 0 0 0 0.233333 0 0 0 0 0.233333 0 0 0 0.17 0"/>
<feBlend mode="normal" in2="effect2_innerShadow_1_661" result="effect3_innerShadow_1_661"/>
</filter>
</defs>
</svg>
